<?xml version="1.0" encoding="utf-8"?>
<!DOCTYPE svg PUBLIC "-//W3C//DTD SVG 1.1//EN" "http://www.w3.org/Graphics/SVG/1.1/DTD/svg11.dtd">
<svg version="1.1" width="285px" height="70px" baseProfile="full" xmlns="http://www.w3.org/2000/svg" xmlns:xlink="http://www.w3.org/1999/xlink" xmlns:ev="http://www.w3.org/2001/xml-events" viewBox="0 0 286 71">
<path fill="#fff" d="M69.137,67.298h4.231L69.317,6.616h-5.132L51.04,41.458c-1.562,4.083-2.867,7.653-3.916,10.715c-1.051,3.061-1.967,6.031-2.747,8.912h-0.27c-0.841-3.001-1.801-6.062-2.881-9.183c-1.08-3.12-2.311-6.632-3.691-10.533L24.751,6.616h-4.862l-4.322,60.682h4.141l1.891-27.91c0.36-5.042,0.644-10.023,0.855-14.946c0.21-4.92,0.345-9.183,0.405-12.784h0.27c0.9,3.421,1.98,7.008,3.241,10.759c1.26,3.752,2.73,7.999,4.412,12.739l11.704,32.142h2.971l12.515-32.952c1.679-4.502,3.165-8.568,4.457-12.2c1.29-3.631,2.444-7.126,3.466-10.489h0.271c0,1.681,0.029,3.587,0.09,5.717c0.059,2.131,0.149,4.382,0.27,6.752c0.12,2.372,0.255,4.788,0.405,7.248c0.149,2.462,0.284,4.832,0.405,7.113L69.137,67.298z"/>
<path fill="#fff" d="M108.571,40.019c0-1.981-0.197-3.977-0.588-5.988c-0.391-2.01-1.13-3.827-2.213-5.447c-1.084-1.621-2.576-2.94-4.472-3.962c-1.897-1.02-4.352-1.53-7.364-1.53c-2.229,0-4.367,0.286-6.415,0.855c-2.048,0.571-4.033,1.517-5.957,2.836l1.351,3.151c1.506-1.02,3.179-1.814,5.018-2.386c1.837-0.57,3.692-0.855,5.562-0.855c2.47,0,4.429,0.453,5.876,1.359c1.446,0.906,2.532,2.025,3.254,3.354c0.723,1.33,1.19,2.733,1.401,4.213c0.21,1.479,0.316,2.794,0.316,3.942v1.178c-8.584-0.119-15.036,1.212-19.357,3.993c-4.321,2.783-6.482,6.687-6.482,11.712c0,1.437,0.255,2.872,0.766,4.309c0.509,1.436,1.274,2.708,2.296,3.812c1.021,1.106,2.326,2.005,3.916,2.693c1.59,0.686,3.436,1.031,5.538,1.031c1.679,0,3.226-0.211,4.637-0.631c1.409-0.419,2.67-0.975,3.781-1.666c1.111-0.688,2.086-1.454,2.926-2.295c0.84-0.84,1.531-1.681,2.071-2.521h0.18l0.63,6.122h3.961c-0.301-1.62-0.48-3.3-0.54-5.042c-0.061-1.739-0.09-3.479-0.09-5.222V40.019L108.571,40.019z M104.339,53.522c0,0.662-0.15,1.531-0.45,2.611c-0.363,1.081-0.891,2.131-1.583,3.151c-0.694,1.021-1.553,1.936-2.578,2.745c-1.024,0.811-2.229,1.456-3.617,1.937c-1.387,0.481-2.954,0.72-4.701,0.72c-1.086,0-2.141-0.18-3.166-0.54s-1.929-0.9-2.712-1.62c-0.784-0.721-1.417-1.636-1.898-2.747c-0.482-1.108-0.723-2.444-0.723-4.006c0-2.58,0.692-4.65,2.079-6.212c1.385-1.561,3.133-2.746,5.243-3.557c2.111-0.811,4.416-1.334,6.917-1.575c2.501-0.239,4.898-0.329,7.189-0.27L104.339,53.522L104.339,53.522z"/>
<path fill="#fff" d="M146.295,62.255c-1.201,0.482-2.611,0.991-4.232,1.531c-1.62,0.541-3.691,0.812-6.212,0.812c-2.461,0-4.712-0.437-6.752-1.309c-2.041-0.873-3.812-2.12-5.312-3.745c-1.5-1.624-2.656-3.596-3.466-5.911s-1.216-4.889-1.216-7.718c0-2.527,0.36-4.948,1.081-7.264c0.72-2.316,1.801-4.347,3.241-6.092c1.44-1.744,3.226-3.144,5.357-4.196c2.13-1.052,4.606-1.58,7.428-1.58c2.341,0,4.322,0.271,5.942,0.811s2.941,1.112,3.961,1.71l1.531-3.574c-0.842-0.585-2.236-1.157-4.187-1.714c-1.951-0.555-4.217-0.833-6.798-0.833c-3.182,0-6.108,0.57-8.778,1.708c-2.672,1.138-4.968,2.711-6.888,4.717c-1.921,2.007-3.421,4.418-4.502,7.233s-1.62,5.931-1.62,9.343c0,3.295,0.479,6.291,1.44,8.987c0.96,2.694,2.326,5.017,4.097,6.963c1.769,1.947,3.901,3.444,6.392,4.492c2.49,1.048,5.267,1.573,8.328,1.573c3.061,0,5.641-0.308,7.743-0.921c2.1-0.616,3.602-1.157,4.502-1.627L146.295,62.255z"/>
<path fill="#fff" d="M172.313,67.298h4.23V41.369c2.034,0.42,4.398,0.63,7.091,0.63c3.111,0,5.983-0.39,8.615-1.172c2.633-0.778,4.907-1.965,6.822-3.556c1.912-1.589,3.425-3.556,4.531-5.897c1.107-2.34,1.661-5.071,1.661-8.192c0-2.58-0.396-4.862-1.189-6.843c-0.795-1.981-1.899-3.691-3.312-5.132c-1.681-1.621-3.827-2.865-6.438-3.737c-2.61-0.869-5.717-1.305-9.318-1.305c-2.52,0-4.832,0.121-6.932,0.36c-2.102,0.24-4.022,0.51-5.763,0.81V67.298L172.313,67.298z M176.544,10.487c0.841-0.179,1.95-0.344,3.332-0.495c1.381-0.149,3.03-0.225,4.952-0.225c2.4,0,4.591,0.286,6.571,0.855c1.982,0.571,3.691,1.411,5.134,2.521c1.439,1.112,2.55,2.536,3.33,4.277c0.779,1.742,1.171,3.781,1.171,6.122c0,4.862-1.502,8.553-4.501,11.075c-3.002,2.521-7.173,3.78-12.516,3.78c-1.439,0-2.79-0.059-4.052-0.179c-1.261-0.12-2.401-0.33-3.422-0.631V10.487z"/>
<path fill="#fff" d="M211.297,67.298h4.23V43.349c0-0.659,0.03-1.335,0.09-2.025c0.061-0.689,0.149-1.364,0.271-2.026c0.54-3.421,1.801-6.27,3.781-8.552c1.981-2.28,4.441-3.421,7.384-3.421c0.419,0,0.778,0,1.08,0c0.3,0,0.629,0.031,0.99,0.09v-4.142c-0.601-0.12-1.141-0.18-1.62-0.18c-2.941,0-5.464,0.932-7.563,2.791c-2.101,1.861-3.633,4.141-4.591,6.842h-0.271v-8.643h-4.051c0.119,2.042,0.209,4.157,0.271,6.347c0.058,2.192,0.09,4.337,0.09,6.437L211.297,67.298z"/>
<path fill="#fff" d="M243.545,24.577c-2.366,0.99-4.477,2.462-6.334,4.412c-1.856,1.951-3.323,4.352-4.401,7.202c-1.078,2.852-1.616,6.138-1.616,9.858c0,3.422,0.494,6.498,1.48,9.229c0.988,2.732,2.352,5.073,4.089,7.022c1.735,1.952,3.788,3.438,6.153,4.457c2.364,1.021,4.895,1.53,7.591,1.53c2.335,0,4.684-0.437,7.051-1.306c2.365-0.869,4.52-2.235,6.467-4.097c1.946-1.858,3.519-4.246,4.718-7.158c1.197-2.91,1.795-6.376,1.795-10.397c0-3.361-0.479-6.406-1.436-9.139c-0.959-2.73-2.292-5.071-3.998-7.022c-1.707-1.95-3.759-3.451-6.152-4.501c-2.395-1.05-5.031-1.576-7.904-1.576C248.409,23.092,245.908,23.587,243.545,24.577z M258.068,28.539c1.95,1.23,3.525,2.777,4.727,4.636c1.199,1.861,2.084,3.886,2.655,6.077c0.569,2.192,0.856,4.277,0.856,6.258c0,2.822-0.392,5.402-1.172,7.742c-0.78,2.342-1.859,4.354-3.24,6.033c-1.382,1.681-3.031,3.003-4.952,3.961c-1.921,0.961-3.993,1.44-6.212,1.44c-2.281,0-4.353-0.479-6.213-1.44c-1.86-0.958-3.466-2.28-4.817-3.961c-1.35-1.68-2.401-3.677-3.149-5.987c-0.751-2.311-1.127-4.816-1.127-7.519c0-2.28,0.3-4.561,0.9-6.842c0.601-2.28,1.546-4.321,2.837-6.122c1.289-1.801,2.91-3.271,4.861-4.412c1.951-1.14,4.277-1.711,6.979-1.711C253.76,26.693,256.116,27.309,258.068,28.539z"/>
</svg>
