<?xml version="1.0" encoding="utf-8"?>
<!-- Generator: Adobe Illustrator 16.0.4, SVG Export Plug-In . SVG Version: 6.00 Build 0)  -->
<svg version="1.2" baseProfile="tiny" id="Layer_1" xmlns="http://www.w3.org/2000/svg" xmlns:xlink="http://www.w3.org/1999/xlink"
	 x="0px" y="0px" width="451px" height="39px" viewBox="0 0 360.668 25.553" xml:space="preserve">
<g>
	<path fill="#999999" d="M8.82,11.142c-0.38-0.38-0.795-0.679-1.248-0.896c-0.453-0.217-0.877-0.372-1.276-0.463V9.702
		c0.931-0.309,1.692-0.831,2.285-1.567S9.47,6.559,9.47,5.613c0-1.253-0.381-2.262-1.143-3.026c-0.49-0.508-1.116-0.885-1.878-1.13
		C5.687,1.211,4.744,1.089,3.619,1.089c-0.689,0-1.337,0.036-1.945,0.108C1.065,1.27,0.508,1.36,0,1.47v18.069
		c0.361,0.036,0.8,0.071,1.316,0.108c0.515,0.036,1.117,0.054,1.805,0.054c1.266,0,2.379-0.132,3.338-0.393
		c0.958-0.263,1.737-0.712,2.334-1.346c0.416-0.417,0.746-0.914,0.99-1.495c0.244-0.579,0.366-1.25,0.366-2.01
		c0-0.744-0.127-1.386-0.38-1.929C9.517,11.985,9.2,11.522,8.82,11.142z M1.279,2.369c0.199-0.055,0.481-0.1,0.844-0.137
		c0.362-0.036,0.834-0.055,1.415-0.055c0.671,0,1.292,0.064,1.864,0.192c0.572,0.127,1.057,0.332,1.457,0.614
		C7.256,3.265,7.569,3.63,7.796,4.075c0.227,0.447,0.34,0.989,0.34,1.625c0,0.51-0.1,0.983-0.299,1.421
		C7.637,7.559,7.352,7.941,6.98,8.269C6.608,8.597,6.16,8.852,5.633,9.034C5.106,9.216,4.517,9.307,3.864,9.307H1.279V2.369z
		 M8.368,16.437c-0.299,0.526-0.693,0.953-1.184,1.279c-0.49,0.326-1.057,0.558-1.701,0.693c-0.644,0.137-1.32,0.204-2.027,0.204
		c-0.471,0-0.889-0.009-1.252-0.027c-0.363-0.018-0.671-0.055-0.925-0.108V10.34H3.51c0.708,0,1.384,0.082,2.028,0.246
		c0.644,0.163,1.21,0.413,1.701,0.749c0.49,0.335,0.874,0.762,1.156,1.278c0.281,0.517,0.422,1.139,0.422,1.864
		C8.817,15.257,8.667,15.91,8.368,16.437z M23.32,16.382V6.504h-1.279v8.209c0,0.255-0.023,0.505-0.069,0.75
		c-0.045,0.245-0.104,0.469-0.177,0.668c-0.127,0.327-0.306,0.646-0.533,0.955c-0.228,0.31-0.5,0.591-0.819,0.846
		s-0.678,0.459-1.079,0.613c-0.4,0.154-0.837,0.231-1.312,0.231c-0.637,0-1.17-0.122-1.598-0.368s-0.773-0.582-1.038-1.009
		c-0.264-0.428-0.456-0.937-0.573-1.527c-0.118-0.591-0.177-1.241-0.177-1.951V6.504h-1.279v7.674c0,1.197,0.15,2.168,0.449,2.911
		c0.3,0.744,0.667,1.32,1.103,1.728c0.436,0.41,0.907,0.687,1.415,0.831c0.508,0.146,0.97,0.218,1.388,0.218
		c0.562,0,1.079-0.078,1.551-0.23c0.472-0.155,0.889-0.354,1.252-0.6c0.363-0.244,0.671-0.521,0.925-0.83
		c0.254-0.308,0.463-0.606,0.626-0.897h0.109v2.258h1.224c-0.037-0.489-0.064-0.997-0.081-1.523
		C23.33,17.516,23.32,16.963,23.32,16.382z M27.62,19.565h1.279V6.504H27.62V19.565z M28.246,1.415
		c-0.309,0-0.567,0.109-0.776,0.327s-0.313,0.481-0.313,0.79s0.104,0.567,0.313,0.775c0.208,0.209,0.467,0.313,0.776,0.313
		c0.308,0,0.571-0.104,0.789-0.313c0.218-0.208,0.327-0.467,0.327-0.775s-0.109-0.572-0.327-0.79S28.554,1.415,28.246,1.415z
		 M33.226,19.565h1.279V0.272h-1.279V19.565z M40.6,3.619l-1.279,0.49v2.395h-2.15v1.035h2.15v8.272
		c0,0.581,0.044,1.121,0.133,1.619c0.088,0.5,0.244,0.926,0.466,1.278c0.222,0.354,0.527,0.632,0.915,0.831
		c0.387,0.199,0.88,0.3,1.479,0.3c0.381,0,0.717-0.029,1.007-0.082c0.29-0.056,0.535-0.128,0.734-0.218L43.92,18.56
		c-0.163,0.054-0.363,0.1-0.599,0.135c-0.236,0.037-0.518,0.055-0.844,0.055c-0.689,0-1.175-0.234-1.456-0.707
		c-0.282-0.473-0.422-1.134-0.422-1.986V7.539h3.62V6.504H40.6V3.619z M54.396,3.959c0.072-0.571,0.213-1.066,0.422-1.483
		c0.208-0.417,0.499-0.752,0.871-1.007c0.372-0.254,0.866-0.381,1.483-0.381c0.381,0,0.698,0.036,0.953,0.108
		c0.253,0.073,0.471,0.155,0.653,0.245l0.408-0.991c-0.2-0.124-0.462-0.23-0.789-0.318C58.07,0.044,57.698,0,57.281,0
		c-0.799,0-1.469,0.149-2.014,0.447c-0.544,0.298-0.985,0.705-1.32,1.22c-0.336,0.515-0.576,1.125-0.722,1.829
		c-0.145,0.704-0.217,1.463-0.217,2.276v0.732H51.13v1.035h1.878v12.027h1.279V7.539h3.428V6.504h-3.428V5.742
		C54.288,5.125,54.323,4.531,54.396,3.959z M68.782,8.041c-0.517-0.589-1.136-1.042-1.86-1.36c-0.724-0.317-1.521-0.476-2.39-0.476
		c-0.796,0-1.552,0.15-2.267,0.449c-0.715,0.299-1.353,0.743-1.914,1.333c-0.562,0.59-1.005,1.315-1.331,2.176
		c-0.326,0.862-0.488,1.855-0.488,2.98c0,1.034,0.149,1.965,0.447,2.789c0.299,0.825,0.711,1.533,1.236,2.123
		c0.525,0.59,1.145,1.039,1.86,1.347c0.714,0.309,1.479,0.463,2.294,0.463c0.705,0,1.416-0.133,2.131-0.395
		c0.714-0.263,1.366-0.676,1.955-1.238c0.588-0.562,1.063-1.283,1.425-2.162c0.362-0.881,0.543-1.929,0.543-3.145
		c0-1.015-0.145-1.937-0.435-2.762C69.7,9.339,69.298,8.631,68.782,8.041z M68.791,15.321c-0.236,0.707-0.562,1.314-0.979,1.823
		c-0.417,0.507-0.917,0.906-1.497,1.197c-0.581,0.29-1.207,0.435-1.877,0.435c-0.69,0-1.316-0.145-1.879-0.435
		c-0.562-0.291-1.047-0.69-1.455-1.197c-0.408-0.509-0.726-1.111-0.953-1.811c-0.227-0.698-0.34-1.456-0.34-2.272
		c0-0.689,0.09-1.377,0.272-2.068c0.181-0.688,0.466-1.306,0.857-1.85c0.39-0.544,0.88-0.989,1.47-1.333
		C63,7.466,63.702,7.293,64.519,7.293c0.834,0,1.546,0.186,2.137,0.558c0.588,0.373,1.065,0.839,1.428,1.402
		c0.363,0.563,0.631,1.174,0.803,1.836c0.172,0.663,0.258,1.292,0.258,1.892C69.145,13.833,69.027,14.613,68.791,15.321z
		 M76.329,7.048c-0.636,0.562-1.098,1.251-1.388,2.068H74.86V6.504h-1.225c0.037,0.617,0.063,1.256,0.082,1.918
		c0.018,0.663,0.027,1.311,0.027,1.946l-0.027,9.197h1.279v-7.238c0-0.199,0.009-0.403,0.027-0.612
		c0.018-0.208,0.045-0.413,0.082-0.612c0.164-1.034,0.544-1.896,1.143-2.585c0.599-0.688,1.343-1.033,2.232-1.033h0.326
		c0.091,0,0.19,0.009,0.299,0.027V6.259c-0.181-0.036-0.345-0.054-0.49-0.054C77.726,6.205,76.964,6.486,76.329,7.048z
		 M88.982,9.066c0.436-0.527,0.975-0.95,1.62-1.268c0.644-0.318,1.392-0.477,2.245-0.477c0.708,0,1.307,0.081,1.796,0.244
		s0.889,0.336,1.197,0.517l0.462-1.081c-0.254-0.176-0.676-0.35-1.265-0.518c-0.589-0.168-1.275-0.252-2.054-0.252
		c-0.962,0-1.846,0.172-2.653,0.516c-0.808,0.344-1.501,0.819-2.082,1.426c-0.581,0.607-1.034,1.336-1.361,2.186
		c-0.327,0.851-0.49,1.792-0.49,2.824c0,0.997,0.145,1.902,0.436,2.717s0.703,1.516,1.238,2.105c0.535,0.587,1.18,1.04,1.933,1.356
		c0.753,0.317,1.591,0.477,2.517,0.477c0.925,0,1.705-0.094,2.34-0.28c0.635-0.186,1.089-0.348,1.361-0.491l-0.327-1.025
		c-0.363,0.146-0.789,0.3-1.278,0.463c-0.49,0.163-1.116,0.244-1.878,0.244c-0.744,0-1.424-0.132-2.041-0.395
		c-0.617-0.264-1.153-0.641-1.606-1.133c-0.453-0.489-0.803-1.086-1.047-1.786c-0.245-0.699-0.368-1.478-0.368-2.333
		c0-0.763,0.109-1.495,0.327-2.195S88.546,9.594,88.982,9.066z M101.881,7.048c-0.635,0.562-1.098,1.251-1.388,2.068h-0.082V6.504
		h-1.225c0.037,0.617,0.063,1.256,0.082,1.918c0.018,0.663,0.027,1.311,0.027,1.946l-0.027,9.197h1.279v-7.238
		c0-0.199,0.009-0.403,0.028-0.612c0.018-0.208,0.044-0.413,0.082-0.612c0.163-1.034,0.544-1.896,1.142-2.585
		c0.599-0.688,1.343-1.033,2.232-1.033h0.327c0.09,0,0.19,0.009,0.299,0.027V6.259c-0.182-0.036-0.345-0.054-0.49-0.054
		C103.277,6.205,102.516,6.486,101.881,7.048z M115.732,8.44c-0.363-0.605-0.867-1.125-1.51-1.558
		c-0.644-0.434-1.493-0.65-2.544-0.65c-0.816,0-1.574,0.163-2.272,0.489c-0.699,0.326-1.302,0.796-1.81,1.413
		c-0.507,0.615-0.907,1.354-1.197,2.213c-0.29,0.86-0.436,1.833-0.436,2.919c0,0.96,0.139,1.843,0.417,2.647
		c0.278,0.807,0.677,1.499,1.198,2.078c0.52,0.58,1.148,1.031,1.882,1.358c0.735,0.325,1.565,0.489,2.49,0.489
		c1.089,0,1.963-0.104,2.626-0.306c0.663-0.203,1.12-0.377,1.374-0.518l-0.326-1c-0.363,0.162-0.82,0.326-1.374,0.489
		s-1.266,0.244-2.137,0.244c-0.653,0-1.274-0.104-1.864-0.313s-1.107-0.552-1.551-1.026c-0.445-0.473-0.799-1.079-1.062-1.818
		c-0.263-0.737-0.395-1.645-0.395-2.72l9.388,0.028c0.018-0.146,0.027-0.271,0.027-0.379v-0.434c0-0.488-0.063-1.066-0.19-1.734
		C116.339,9.683,116.095,9.046,115.732,8.44z M107.323,11.865c0.055-0.511,0.172-1.036,0.353-1.574
		c0.181-0.538,0.444-1.031,0.787-1.479c0.344-0.447,0.768-0.816,1.275-1.109c0.506-0.292,1.103-0.438,1.789-0.438
		c0.76,0,1.384,0.15,1.871,0.452c0.489,0.301,0.878,0.68,1.167,1.136c0.29,0.456,0.488,0.953,0.596,1.492
		c0.109,0.538,0.163,1.045,0.163,1.519H107.323z M127.869,16.464V11.32c0-0.598-0.06-1.201-0.178-1.81
		c-0.118-0.607-0.341-1.157-0.669-1.646c-0.328-0.49-0.778-0.889-1.352-1.197c-0.574-0.309-1.315-0.463-2.226-0.463
		c-0.673,0-1.319,0.086-1.939,0.258c-0.619,0.173-1.219,0.458-1.8,0.858l0.408,0.952c0.456-0.309,0.961-0.549,1.517-0.722
		c0.556-0.172,1.116-0.258,1.681-0.258c0.747,0,1.339,0.137,1.776,0.411c0.437,0.273,0.765,0.612,0.983,1.014
		c0.219,0.401,0.36,0.826,0.424,1.272c0.064,0.448,0.095,0.845,0.095,1.192v0.355c-2.594-0.036-4.544,0.366-5.851,1.207
		c-1.306,0.842-1.959,2.021-1.959,3.54c0,0.434,0.077,0.869,0.232,1.303c0.154,0.434,0.385,0.817,0.694,1.151
		c0.308,0.335,0.703,0.606,1.184,0.815c0.48,0.207,1.038,0.311,1.674,0.311c0.507,0,0.975-0.063,1.401-0.19
		c0.426-0.126,0.807-0.294,1.143-0.503c0.335-0.209,0.63-0.44,0.884-0.694c0.254-0.254,0.463-0.508,0.626-0.762h0.054l0.19,1.85
		h1.197c-0.091-0.489-0.146-0.997-0.163-1.523C127.878,17.516,127.869,16.989,127.869,16.464z M126.589,15.403
		c0,0.199-0.045,0.463-0.135,0.789c-0.11,0.326-0.269,0.644-0.479,0.952s-0.47,0.585-0.779,0.83
		c-0.31,0.245-0.674,0.439-1.093,0.585c-0.419,0.145-0.893,0.217-1.421,0.217c-0.329,0-0.647-0.054-0.957-0.163
		c-0.31-0.108-0.583-0.271-0.82-0.489c-0.237-0.218-0.428-0.494-0.573-0.831c-0.146-0.336-0.219-0.738-0.219-1.21
		c0-0.78,0.209-1.407,0.628-1.877c0.419-0.472,0.947-0.831,1.585-1.076c0.638-0.245,1.334-0.404,2.091-0.477
		c0.756-0.072,1.48-0.099,2.172-0.081V15.403z M133.692,3.619l-1.279,0.49v2.395h-2.15v1.035h2.15v8.272
		c0,0.581,0.044,1.121,0.133,1.619c0.089,0.5,0.244,0.926,0.467,1.278c0.222,0.354,0.525,0.632,0.913,0.831
		c0.389,0.199,0.882,0.3,1.48,0.3c0.381,0,0.717-0.029,1.007-0.082c0.29-0.056,0.535-0.128,0.734-0.218l-0.136-0.979
		c-0.164,0.054-0.363,0.1-0.599,0.135c-0.236,0.037-0.517,0.055-0.844,0.055c-0.69,0-1.175-0.234-1.456-0.707
		s-0.422-1.134-0.422-1.986V7.539h3.62V6.504h-3.62V3.619z M140.169,19.565h1.279V6.504h-1.279V19.565z M140.794,1.415
		c-0.309,0-0.567,0.109-0.775,0.327c-0.209,0.218-0.313,0.481-0.313,0.79s0.104,0.567,0.313,0.775
		c0.208,0.209,0.466,0.313,0.775,0.313c0.308,0,0.572-0.104,0.789-0.313c0.218-0.208,0.327-0.467,0.327-0.775
		s-0.109-0.572-0.327-0.79C141.366,1.524,141.103,1.415,140.794,1.415z M150.972,14.613c-0.508,1.27-0.935,2.422-1.279,3.455h-0.054
		c-0.182-0.543-0.372-1.097-0.572-1.659c-0.2-0.562-0.426-1.161-0.68-1.796l-2.993-8.109h-1.361l5.008,13.062h1.115l5.197-13.062
		h-1.36L150.972,14.613z M157.829,19.565h1.279V6.504h-1.279V19.565z M158.455,1.415c-0.309,0-0.567,0.109-0.776,0.327
		c-0.209,0.218-0.313,0.481-0.313,0.79s0.104,0.567,0.313,0.775c0.208,0.209,0.467,0.313,0.776,0.313
		c0.308,0,0.571-0.104,0.79-0.313c0.217-0.208,0.326-0.467,0.326-0.775s-0.109-0.572-0.326-0.79
		C159.026,1.524,158.763,1.415,158.455,1.415z M165.204,3.619l-1.279,0.49v2.395h-2.149v1.035h2.149v8.272
		c0,0.581,0.044,1.121,0.133,1.619c0.088,0.5,0.244,0.926,0.466,1.278c0.222,0.354,0.527,0.632,0.915,0.831
		c0.387,0.199,0.881,0.3,1.479,0.3c0.381,0,0.716-0.029,1.007-0.082c0.29-0.056,0.535-0.128,0.735-0.218l-0.136-0.979
		c-0.163,0.054-0.363,0.1-0.599,0.135c-0.236,0.037-0.517,0.055-0.844,0.055c-0.689,0-1.174-0.234-1.456-0.707
		c-0.281-0.473-0.421-1.134-0.421-1.986V7.539h3.619V6.504h-3.619V3.619z M176.959,14.94c-0.2,0.524-0.381,1.037-0.544,1.537
		c-0.163,0.499-0.309,0.947-0.436,1.347h-0.054c-0.127-0.418-0.272-0.875-0.436-1.374s-0.336-0.985-0.517-1.455l-3.32-8.491h-1.361
		l4.707,12.109c0.109,0.255,0.164,0.445,0.164,0.572c0,0.09-0.054,0.28-0.164,0.571c-0.308,0.761-0.657,1.411-1.047,1.945
		c-0.391,0.535-0.749,0.967-1.075,1.292c-0.381,0.381-0.771,0.69-1.17,0.924c-0.399,0.238-0.762,0.427-1.089,0.574l0.436,1.061
		c0.145-0.055,0.431-0.186,0.857-0.395c0.426-0.208,0.893-0.54,1.401-0.994c0.435-0.379,0.83-0.825,1.184-1.333
		s0.704-1.093,1.048-1.754c0.344-0.663,0.685-1.407,1.021-2.232c0.335-0.825,0.694-1.746,1.075-2.762l3.783-9.579h-1.361
		L176.959,14.94z M198.882,8.041c-0.516-0.589-1.136-1.042-1.86-1.36c-0.724-0.317-1.52-0.476-2.389-0.476
		c-0.797,0-1.553,0.15-2.268,0.449c-0.715,0.299-1.353,0.743-1.914,1.333c-0.562,0.59-1.005,1.315-1.331,2.176
		c-0.326,0.862-0.489,1.855-0.489,2.98c0,1.034,0.15,1.965,0.448,2.789c0.298,0.825,0.711,1.533,1.236,2.123
		c0.524,0.59,1.145,1.039,1.86,1.347c0.715,0.309,1.48,0.463,2.294,0.463c0.706,0,1.416-0.133,2.131-0.395
		c0.715-0.263,1.366-0.676,1.954-1.238c0.589-0.562,1.064-1.283,1.427-2.162c0.361-0.881,0.542-1.929,0.542-3.145
		c0-1.015-0.145-1.937-0.435-2.762C199.8,9.339,199.398,8.631,198.882,8.041z M198.892,15.321c-0.236,0.707-0.563,1.314-0.98,1.823
		c-0.417,0.507-0.916,0.906-1.496,1.197c-0.581,0.29-1.207,0.435-1.879,0.435c-0.689,0-1.315-0.145-1.877-0.435
		c-0.563-0.291-1.048-0.69-1.456-1.197c-0.408-0.509-0.726-1.111-0.952-1.811c-0.228-0.698-0.34-1.456-0.34-2.272
		c0-0.689,0.091-1.377,0.271-2.068c0.182-0.688,0.468-1.306,0.858-1.85c0.389-0.544,0.879-0.989,1.469-1.333
		c0.589-0.344,1.293-0.517,2.108-0.517c0.834,0,1.547,0.186,2.136,0.558c0.59,0.373,1.067,0.839,1.429,1.402
		c0.363,0.563,0.63,1.174,0.803,1.836c0.172,0.663,0.258,1.292,0.258,1.892C199.246,13.833,199.127,14.613,198.892,15.321z
		 M212.13,7.156c-0.481-0.38-0.971-0.63-1.469-0.748c-0.5-0.118-0.903-0.176-1.212-0.176c-1.052,0-1.958,0.251-2.721,0.754
		c-0.761,0.502-1.315,1.113-1.66,1.831h-0.108V6.504h-1.253c0.037,0.526,0.064,1.025,0.082,1.497
		c0.018,0.472,0.027,1.016,0.027,1.633v9.932h1.279v-8.109c0-0.417,0.064-0.797,0.191-1.143c0.254-0.871,0.725-1.587,1.415-2.15
		c0.689-0.562,1.487-0.843,2.394-0.843c0.654,0,1.207,0.122,1.661,0.367c0.453,0.245,0.815,0.571,1.088,0.979
		c0.272,0.408,0.467,0.884,0.585,1.428c0.118,0.545,0.177,1.107,0.177,1.688v7.782h1.279v-7.902c0-1.195-0.171-2.15-0.517-2.865
		C213.024,8.083,212.611,7.536,212.13,7.156z M231.899,16.464V11.32c0-0.598-0.058-1.201-0.178-1.81
		c-0.118-0.607-0.341-1.157-0.668-1.646c-0.329-0.49-0.779-0.889-1.351-1.197c-0.574-0.309-1.315-0.463-2.227-0.463
		c-0.672,0-1.319,0.086-1.938,0.258c-0.619,0.173-1.219,0.458-1.801,0.858l0.409,0.952c0.455-0.309,0.96-0.549,1.517-0.722
		c0.556-0.172,1.116-0.258,1.681-0.258c0.747,0,1.338,0.137,1.776,0.411c0.437,0.273,0.765,0.612,0.983,1.014
		c0.219,0.401,0.36,0.826,0.423,1.272c0.064,0.448,0.095,0.845,0.095,1.192v0.355c-2.594-0.036-4.543,0.366-5.85,1.207
		c-1.307,0.842-1.96,2.021-1.96,3.54c0,0.434,0.077,0.869,0.232,1.303c0.154,0.434,0.385,0.817,0.693,1.151
		c0.309,0.335,0.703,0.606,1.184,0.815c0.481,0.207,1.039,0.311,1.675,0.311c0.507,0,0.974-0.063,1.4-0.19
		c0.426-0.126,0.807-0.294,1.143-0.503c0.335-0.209,0.631-0.44,0.884-0.694c0.254-0.254,0.463-0.508,0.626-0.762h0.054l0.19,1.85
		h1.198c-0.09-0.489-0.145-0.997-0.164-1.523C231.909,17.516,231.899,16.989,231.899,16.464z M230.62,15.403
		c0,0.199-0.044,0.463-0.136,0.789c-0.109,0.326-0.269,0.644-0.478,0.952c-0.209,0.309-0.47,0.585-0.779,0.83
		s-0.674,0.439-1.093,0.585c-0.419,0.145-0.893,0.217-1.421,0.217c-0.328,0-0.647-0.054-0.957-0.163
		c-0.309-0.108-0.583-0.271-0.82-0.489c-0.237-0.218-0.428-0.494-0.573-0.831c-0.147-0.336-0.219-0.738-0.219-1.21
		c0-0.78,0.208-1.407,0.628-1.877c0.418-0.472,0.947-0.831,1.584-1.076c0.639-0.245,1.335-0.404,2.091-0.477
		c0.757-0.072,1.481-0.099,2.172-0.081V15.403z M244.376,7.156c-0.48-0.38-0.971-0.63-1.469-0.748
		c-0.5-0.118-0.902-0.176-1.211-0.176c-1.052,0-1.959,0.251-2.721,0.754c-0.763,0.502-1.315,1.113-1.66,1.831h-0.109V6.504h-1.252
		c0.037,0.526,0.064,1.025,0.082,1.497c0.018,0.472,0.028,1.016,0.028,1.633v9.932h1.278v-8.109c0-0.417,0.063-0.797,0.19-1.143
		c0.254-0.871,0.726-1.587,1.416-2.15c0.688-0.562,1.487-0.843,2.395-0.843c0.653,0,1.207,0.122,1.659,0.367
		c0.455,0.245,0.817,0.571,1.089,0.979c0.272,0.408,0.467,0.884,0.584,1.428c0.118,0.545,0.177,1.107,0.177,1.688v7.782h1.279
		v-7.902c0-1.195-0.173-2.15-0.518-2.865C245.27,8.083,244.857,7.536,244.376,7.156z M264.907,8.44
		c-0.363-0.605-0.865-1.125-1.509-1.558c-0.645-0.434-1.493-0.65-2.545-0.65c-0.816,0-1.573,0.163-2.273,0.489
		c-0.698,0.326-1.301,0.796-1.809,1.413c-0.509,0.615-0.908,1.354-1.198,2.213c-0.29,0.86-0.435,1.833-0.435,2.919
		c0,0.96,0.138,1.843,0.416,2.647c0.278,0.807,0.677,1.499,1.199,2.078c0.518,0.58,1.146,1.031,1.882,1.358
		c0.733,0.325,1.565,0.489,2.49,0.489c1.088,0,1.964-0.104,2.625-0.306c0.662-0.203,1.12-0.377,1.376-0.518l-0.327-1
		c-0.363,0.162-0.821,0.326-1.376,0.489c-0.552,0.163-1.264,0.244-2.136,0.244c-0.652,0-1.274-0.104-1.864-0.313
		c-0.589-0.21-1.105-0.552-1.55-1.026c-0.444-0.473-0.799-1.079-1.062-1.818c-0.264-0.737-0.395-1.645-0.395-2.72l9.388,0.028
		c0.018-0.146,0.028-0.271,0.028-0.379v-0.434c0-0.488-0.064-1.066-0.191-1.734C265.516,9.683,265.27,9.046,264.907,8.44z
		 M256.499,11.865c0.055-0.511,0.172-1.036,0.353-1.574c0.18-0.538,0.442-1.031,0.786-1.479c0.344-0.447,0.769-0.816,1.274-1.109
		c0.507-0.292,1.103-0.438,1.792-0.438c0.759,0,1.383,0.15,1.868,0.452c0.491,0.301,0.879,0.68,1.168,1.136
		c0.289,0.456,0.489,0.953,0.598,1.492c0.107,0.538,0.163,1.045,0.163,1.519H256.499z M278.967,8.055
		c-0.479-0.581-1.053-1.034-1.723-1.361c-0.67-0.326-1.411-0.489-2.225-0.489c-1.087,0-2.019,0.236-2.796,0.708
		c-0.778,0.472-1.403,1.143-1.872,2.014h-0.109V6.504h-1.28c0.037,0.599,0.063,1.229,0.082,1.891
		c0.018,0.662,0.028,1.42,0.028,2.272v14.286h1.279l-0.004-7.455h0.057c0.435,0.762,1.027,1.347,1.778,1.755s1.588,0.612,2.51,0.612
		c0.761,0,1.492-0.146,2.197-0.435c0.706-0.29,1.322-0.731,1.847-1.321c0.524-0.589,0.946-1.323,1.262-2.203
		c0.316-0.881,0.475-1.909,0.475-3.089c0-0.98-0.13-1.873-0.394-2.68C279.816,9.33,279.446,8.636,278.967,8.055z M278.896,15.252
		c-0.2,0.718-0.496,1.339-0.886,1.864c-0.389,0.527-0.87,0.935-1.441,1.226c-0.57,0.29-1.22,0.435-1.946,0.435
		c-0.961,0-1.827-0.29-2.599-0.87c-0.771-0.581-1.292-1.388-1.564-2.422c-0.036-0.163-0.064-0.331-0.082-0.503
		c-0.018-0.173-0.025-0.351-0.025-0.53v-2.586c0-0.181,0.021-0.367,0.067-0.557c0.044-0.191,0.085-0.377,0.121-0.559
		c0.272-1.07,0.805-1.913,1.593-2.53c0.789-0.617,1.655-0.925,2.599-0.925c0.728,0,1.364,0.154,1.919,0.463
		c0.553,0.308,1.02,0.721,1.401,1.238c0.38,0.517,0.668,1.111,0.857,1.782c0.19,0.671,0.285,1.37,0.285,2.095
		C279.194,13.743,279.096,14.537,278.896,15.252z M284.392,1.415c-0.31,0-0.567,0.109-0.775,0.327
		c-0.21,0.218-0.313,0.481-0.313,0.79s0.104,0.567,0.313,0.775c0.208,0.209,0.466,0.313,0.775,0.313
		c0.309,0,0.572-0.104,0.789-0.313c0.218-0.208,0.328-0.467,0.328-0.775s-0.11-0.572-0.328-0.79
		C284.964,1.524,284.7,1.415,284.392,1.415z M283.767,19.565h1.278V6.504h-1.278V19.565z M290.924,9.066
		c0.435-0.527,0.975-0.95,1.617-1.268c0.645-0.318,1.392-0.477,2.246-0.477c0.707,0,1.306,0.081,1.797,0.244
		c0.489,0.163,0.889,0.336,1.197,0.517l0.462-1.081c-0.254-0.176-0.676-0.35-1.267-0.518c-0.588-0.168-1.274-0.252-2.054-0.252
		c-0.961,0-1.847,0.172-2.653,0.516s-1.5,0.819-2.081,1.426c-0.581,0.607-1.035,1.336-1.36,2.186
		c-0.328,0.851-0.49,1.792-0.49,2.824c0,0.997,0.145,1.902,0.436,2.717c0.289,0.814,0.701,1.516,1.237,2.105
		c0.537,0.587,1.181,1.04,1.933,1.356c0.753,0.317,1.593,0.477,2.518,0.477s1.705-0.094,2.34-0.28
		c0.634-0.186,1.088-0.348,1.36-0.491l-0.328-1.025c-0.36,0.146-0.788,0.3-1.278,0.463c-0.489,0.163-1.114,0.244-1.876,0.244
		c-0.746,0-1.424-0.132-2.041-0.395c-0.618-0.264-1.152-0.641-1.606-1.133c-0.454-0.489-0.803-1.086-1.047-1.786
		c-0.244-0.699-0.368-1.478-0.368-2.333c0-0.763,0.11-1.495,0.328-2.195C290.161,10.207,290.487,9.594,290.924,9.066z
		 M310.323,12.218c-0.886-0.363-1.55-0.73-1.985-1.102c-0.435-0.372-0.652-0.894-0.652-1.565c0-0.599,0.212-1.125,0.64-1.578
		c0.425-0.454,1.047-0.681,1.863-0.681c0.635,0,1.157,0.091,1.565,0.272c0.408,0.182,0.721,0.354,0.938,0.517l0.517-1.061
		c-0.325-0.218-0.734-0.409-1.225-0.572c-0.489-0.163-1.025-0.245-1.605-0.245c-0.616,0-1.171,0.095-1.659,0.286
		c-0.489,0.19-0.907,0.449-1.252,0.776s-0.607,0.703-0.789,1.129c-0.181,0.427-0.272,0.876-0.272,1.347
		c0,0.798,0.28,1.488,0.844,2.068c0.562,0.582,1.369,1.081,2.421,1.497c0.926,0.382,1.606,0.794,2.042,1.239
		c0.437,0.444,0.654,1.02,0.654,1.729c0,0.688-0.246,1.274-0.736,1.754c-0.489,0.48-1.242,0.721-2.259,0.721
		c-0.581,0-1.116-0.095-1.605-0.285c-0.49-0.19-0.906-0.396-1.253-0.612l-0.489,1.088c0.418,0.273,0.908,0.491,1.47,0.653
		c0.563,0.164,1.162,0.246,1.797,0.246c1.306,0,2.356-0.336,3.157-1.008c0.798-0.671,1.197-1.578,1.197-2.721
		c0-0.997-0.296-1.791-0.885-2.382C312.17,13.14,311.358,12.636,310.323,12.218z M318.543,9.066c0.438-0.527,0.977-0.95,1.619-1.268
		c0.646-0.318,1.393-0.477,2.245-0.477c0.707,0,1.308,0.081,1.795,0.244c0.49,0.163,0.889,0.336,1.197,0.517l0.464-1.081
		c-0.253-0.176-0.678-0.35-1.266-0.518c-0.589-0.168-1.274-0.252-2.054-0.252c-0.963,0-1.847,0.172-2.654,0.516
		c-0.806,0.344-1.502,0.819-2.081,1.426c-0.58,0.607-1.034,1.336-1.361,2.186c-0.325,0.851-0.489,1.792-0.489,2.824
		c0,0.997,0.145,1.902,0.436,2.717c0.29,0.814,0.702,1.516,1.237,2.105c0.535,0.587,1.179,1.04,1.932,1.356
		c0.754,0.317,1.593,0.477,2.52,0.477c0.926,0,1.704-0.094,2.339-0.28c0.635-0.186,1.088-0.348,1.361-0.491l-0.327-1.025
		c-0.364,0.146-0.789,0.3-1.279,0.463s-1.116,0.244-1.876,0.244c-0.745,0-1.427-0.132-2.041-0.395
		c-0.618-0.264-1.154-0.641-1.605-1.133c-0.455-0.489-0.805-1.086-1.049-1.786c-0.245-0.699-0.366-1.478-0.366-2.333
		c0-0.763,0.107-1.495,0.325-2.195S318.108,9.594,318.543,9.066z M336.802,16.464V11.32c0-0.598-0.061-1.201-0.178-1.81
		c-0.119-0.607-0.34-1.157-0.668-1.646c-0.329-0.49-0.779-0.889-1.352-1.197c-0.573-0.309-1.314-0.463-2.227-0.463
		c-0.674,0-1.319,0.086-1.939,0.258c-0.618,0.173-1.218,0.458-1.8,0.858l0.408,0.952c0.456-0.309,0.961-0.549,1.517-0.722
		c0.555-0.172,1.117-0.258,1.682-0.258c0.746,0,1.338,0.137,1.776,0.411c0.436,0.273,0.765,0.612,0.983,1.014
		c0.218,0.401,0.36,0.826,0.424,1.272c0.062,0.448,0.095,0.845,0.095,1.192v0.355c-2.594-0.036-4.546,0.366-5.851,1.207
		c-1.308,0.842-1.96,2.021-1.96,3.54c0,0.434,0.077,0.869,0.233,1.303c0.151,0.434,0.383,0.817,0.692,1.151
		c0.308,0.335,0.703,0.606,1.184,0.815c0.48,0.207,1.038,0.311,1.674,0.311c0.508,0,0.974-0.063,1.401-0.19
		c0.426-0.126,0.807-0.294,1.144-0.503c0.335-0.209,0.629-0.44,0.883-0.694c0.255-0.254,0.463-0.508,0.626-0.762h0.055l0.191,1.85
		h1.197c-0.091-0.489-0.146-0.997-0.163-1.523C336.812,17.516,336.802,16.989,336.802,16.464z M335.523,15.403
		c0,0.199-0.045,0.463-0.137,0.789c-0.109,0.326-0.27,0.644-0.478,0.952c-0.21,0.309-0.47,0.585-0.778,0.83
		c-0.31,0.245-0.675,0.439-1.093,0.585c-0.42,0.145-0.896,0.217-1.423,0.217c-0.327,0-0.646-0.054-0.955-0.163
		c-0.31-0.108-0.585-0.271-0.82-0.489c-0.236-0.218-0.429-0.494-0.573-0.831c-0.146-0.336-0.22-0.738-0.22-1.21
		c0-0.78,0.21-1.407,0.63-1.877c0.418-0.472,0.945-0.831,1.583-1.076c0.638-0.245,1.335-0.404,2.09-0.477
		c0.757-0.072,1.481-0.099,2.174-0.081V15.403z M340.968,19.565h1.278V0.272h-1.278V19.565z M355.306,8.44
		c-0.361-0.605-0.866-1.125-1.51-1.558c-0.643-0.434-1.492-0.65-2.544-0.65c-0.815,0-1.573,0.163-2.272,0.489
		c-0.697,0.326-1.303,0.796-1.81,1.413c-0.509,0.615-0.908,1.354-1.195,2.213c-0.293,0.86-0.438,1.833-0.438,2.919
		c0,0.96,0.141,1.843,0.416,2.647c0.281,0.807,0.678,1.499,1.198,2.078c0.521,0.58,1.147,1.031,1.884,1.358
		c0.733,0.325,1.563,0.489,2.489,0.489c1.088,0,1.964-0.104,2.626-0.306c0.661-0.203,1.121-0.377,1.373-0.518l-0.325-1
		c-0.362,0.162-0.822,0.326-1.373,0.489c-0.555,0.163-1.269,0.244-2.139,0.244c-0.652,0-1.274-0.104-1.863-0.313
		c-0.59-0.21-1.105-0.552-1.551-1.026c-0.444-0.473-0.798-1.079-1.062-1.818c-0.263-0.737-0.395-1.645-0.395-2.72l9.388,0.028
		c0.019-0.146,0.028-0.271,0.028-0.379v-0.434c0-0.488-0.064-1.066-0.191-1.734C355.914,9.683,355.669,9.046,355.306,8.44z
		 M346.899,11.865c0.053-0.511,0.17-1.036,0.352-1.574c0.18-0.538,0.442-1.031,0.787-1.479c0.343-0.447,0.769-0.816,1.274-1.109
		c0.505-0.292,1.102-0.438,1.788-0.438c0.761,0,1.383,0.15,1.872,0.452c0.488,0.301,0.878,0.68,1.168,1.136
		c0.287,0.456,0.485,0.953,0.596,1.492c0.107,0.538,0.163,1.045,0.163,1.519H346.899z M360.369,17.771
		c-0.2-0.236-0.463-0.354-0.79-0.354c-0.325,0-0.595,0.118-0.803,0.354c-0.21,0.235-0.313,0.526-0.313,0.87
		c0,0.345,0.1,0.635,0.301,0.871c0.2,0.235,0.461,0.354,0.789,0.354c0.327,0,0.593-0.113,0.801-0.341
		c0.21-0.226,0.314-0.52,0.314-0.884C360.668,18.297,360.567,18.006,360.369,17.771z"/>
</g>
</svg>
