<?xml version="1.0" encoding="utf-8"?>
<!-- Generator: Adobe Illustrator 16.0.4, SVG Export Plug-In . SVG Version: 6.00 Build 0)  -->
<svg version="1.2" baseProfile="tiny" id="Layer_1" xmlns="http://www.w3.org/2000/svg" xmlns:xlink="http://www.w3.org/1999/xlink"
	 x="0px" y="0px" width="10.045px" height="19.116px" viewBox="0 0 10.045 19.116" xml:space="preserve">
<g>
	<path fill-rule="evenodd" fill="#71BCE2" d="M9.938,9.073C9.891,8.946,9.821,8.827,9.722,8.725C9.69,8.694,9.651,8.681,9.617,8.654
		L1.638,0.281c-0.366-0.374-0.96-0.374-1.327,0c-0.366,0.376-0.366,0.984,0,1.359l7.408,7.774L0.283,17.43
		c-0.376,0.386-0.376,1.01,0,1.396c0.376,0.387,0.987,0.387,1.363,0l7.862-8.474c0.094-0.045,0.185-0.099,0.263-0.178
		C10.062,9.875,10.111,9.432,9.938,9.073z"/>
</g>
</svg>
